<?xml version="1.0" encoding="UTF-8"?>
<svg width="12px" height="12px" viewBox="0 0 12 12" version="1.1" xmlns="http://www.w3.org/2000/svg" xmlns:xlink="http://www.w3.org/1999/xlink">
    <!-- Generator: Sketch 55.2 (78181) - https://sketchapp.com -->
    <title>refresh (1)</title>
    <desc>Created with Sketch.</desc>
    <g id="cpm" stroke="none" stroke-width="1" fill="none" fill-rule="evenodd">
        <g id="Cek-in-kinerja---isi-data-3" transform="translate(-25.000000, -474.000000)" fill="#F5A828" fill-rule="nonzero">
            <g id="Group" transform="translate(24.000000, 468.000000)">
                <g id="refresh-(1)" transform="translate(1.000000, 6.000000)">
                    <path d="M9.85606695,0 C9.61943096,0 9.42760669,0.191824268 9.42760669,0.428460251 L9.42760669,1.99358159 C7.22176569,-0.141991632 3.70237657,-0.0850041841 1.56680335,2.12081172 C0.560359833,3.1603682 -0.00110460251,4.55138912 0.0016716851,5.99831799 C0.0016716851,6.23495397 0.193506276,6.42677824 0.430142259,6.42677824 C0.666778243,6.42677824 0.858577406,6.23495397 0.858577406,5.99831799 C0.859104603,3.39542259 2.96957322,1.28575732 5.57249372,1.28628452 C6.89442678,1.28653556 8.15545607,1.8419749 9.0480251,2.81706276 L7.14999163,3.44987448 C6.92520502,3.52466109 6.80357322,3.76749791 6.87835983,3.99228452 C6.95314644,4.21707113 7.19598326,4.33870293 7.42076987,4.26391632 L9.99148117,3.40702092 C10.1669623,3.34857741 10.2851297,3.18409205 10.2845544,2.99914644 L10.2845544,0.428435146 C10.2845544,0.191824268 10.0927029,0 9.85606695,0 Z" id="Path"></path>
                    <path d="M10.7129623,5.56988285 C10.4763264,5.56988285 10.2845021,5.76170711 10.2845021,5.9983431 C10.2839749,8.60123849 8.17350628,10.7109038 5.57058577,10.7103766 C4.24865272,10.7101255 2.98762343,10.1546862 2.09505439,9.17959833 L3.99308787,8.54678661 C4.21787448,8.472 4.33950628,8.22916318 4.26471967,8.00437657 C4.18993305,7.77958996 3.94709623,7.65795816 3.72230962,7.73274477 L1.15159833,8.58964017 C0.976117155,8.64808368 0.857949791,8.81256904 0.85852509,8.99751464 L0.85852509,11.5682259 C0.85852509,11.8048619 1.05035146,11.9966862 1.28698745,11.9966862 C1.52362343,11.9966862 1.7154477,11.8048619 1.7154477,11.5682259 L1.7154477,10.0030795 C3.9212887,12.1386527 7.44070293,12.0816904 9.57625105,9.87584937 C10.5826946,8.83629289 11.144159,7.44527197 11.1413827,5.9983431 C11.1413827,5.76170711 10.9495983,5.56988285 10.7129623,5.56988285 Z" id="Path"></path>
                </g>
            </g>
        </g>
    </g>
</svg>